<svg version="1.1" id="Layer_1" xmlns="http://www.w3.org/2000/svg" xmlns:xlink="http://www.w3.org/1999/xlink" x="0px" y="0px" width="16px" height="16px" viewBox="0 0 16 16" enable-background="new 0 0 16 16" xml:space="preserve">
  <g id="icon">
    <path d="M13,8.55V0h1v8.55c-0.162,-0.033,-0.329,-0.05,-0.5,-0.05S13.162,8.517,13,8.55zM3.5,6.5c0.171,0,0.338,0.017,0.5,0.05V0H3v6.55C3.162,6.517,3.329,6.5,3.5,6.5zM8.5,2.5c0.171,0,0.338,0.017,0.5,0.05V0H8v2.55C8.162,2.517,8.329,2.5,8.5,2.5zM3.5,11.5c-0.171,0,-0.338,-0.017,-0.5,-0.05V16h1v-4.55C3.838,11.483,3.671,11.5,3.5,11.5zM14,13.45c-0.162,0.033,-0.329,0.05,-0.5,0.05s-0.338,-0.017,-0.5,-0.05V16h1V13.45zM8.5,7.5c-0.171,0,-0.338,-0.017,-0.5,-0.05V16h1V7.45C8.838,7.483,8.671,7.5,8.5,7.5z" fill="#6D6E71"/>
    <path d="M1.8,9c0,-0.937,0.763,-1.7,1.7,-1.7s1.7,0.763,1.7,1.7s-0.763,1.7,-1.7,1.7S1.8,9.937,1.8,9zM6.8,5c0,-0.937,0.763,-1.7,1.7,-1.7s1.7,0.763,1.7,1.7s-0.763,1.7,-1.7,1.7S6.8,5.937,6.8,5zM11.8,11c0,-0.937,0.763,-1.7,1.7,-1.7s1.7,0.763,1.7,1.7s-0.763,1.7,-1.7,1.7S11.8,11.937,11.8,11z" fill="#217346"/>
  </g>
</svg>
